
<svg xmlns="http://www.w3.org/2000/svg" viewBox="0 0 1440 100" preserveAspectRatio="none">
  <path d="M0,50 L30,60 L60,40 L90,55 L120,35 L150,60 L180,40 L210,60 L240,35 L270,55 L300,40 L330,60 L360,35 L390,55 L420,40 L450,60 L480,35 L510,55 L540,40 L570,60 L600,35 L630,55 L660,40 L690,60 L720,35 L750,55 L780,40 L810,60 L840,35 L870,55 L900,40 L930,60 L960,35 L990,55 L1020,40 L1050,60 L1080,35 L1110,55 L1140,40 L1170,60 L1200,35 L1230,55 L1260,40 L1290,60 L1320,35 L1350,55 L1380,40 L1410,60 L1440,35 L1440,100 L0,100 Z" fill="#f2e2f4"/>
</svg>
