<?xml version="1.0" encoding="iso-8859-1"?>
<!-- Uploaded to: SVG Repo, www.svgrepo.com, Generator: SVG Repo Mixer Tools -->
<svg fill="#000000" height="800px" width="800px" version="1.1" id="Layer_1" xmlns="http://www.w3.org/2000/svg" xmlns:xlink="http://www.w3.org/1999/xlink" 
	 viewBox="0 0 512 512" xml:space="preserve">
<g>
	<g>
		<path d="M343.669,194.086c-17.839-17.839-46.761-17.839-64.598,0L256,217.156l-23.072-23.07
			c-17.839-17.839-46.761-17.839-64.598,0c-17.839,17.839-17.839,46.761,0,64.598L256,346.353l87.669-87.669
			C361.508,240.845,361.508,211.923,343.669,194.086z"/>
	</g>
</g>
<g>
	<g>
		<path d="M31.944,60.235l103.207,103.207c0.414-0.432,0.81-0.876,1.235-1.301c17.159-17.161,39.975-26.612,64.244-26.612
			c20.292,0,39.564,6.606,55.37,18.802c15.803-12.195,35.078-18.802,55.37-18.802c24.269,0,47.086,9.451,64.245,26.613
			c0.425,0.425,0.821,0.867,1.235,1.3L480.056,60.235H31.944z"/>
	</g>
</g>
<g>
	<g>
		<path d="M512,419.82V92.18L399.556,204.624c7.314,29.854-0.664,62.725-23.94,86.002L256,410.243L136.386,290.628
			c-23.276-23.279-31.256-56.148-23.942-86.004L0,92.18V419.82l89.44-89.44l31.944,31.944l-89.44,89.44h448.111l-89.44-89.44
			l31.944-31.944L512,419.82z"/>
	</g>
</g>
</svg>